<svg id="Layer_1" data-name="Layer 1" xmlns="http://www.w3.org/2000/svg" viewBox="0 0 1081 378"><defs><style>.cls-1{fill:#037c59;}.cls-2{fill:#00b182;}.cls-3{fill:#fff;}</style></defs><title>D_Explorer _w</title><path class="cls-1" d="M99.37,189c0-65.58,22.31-119.14,53.27-134.07-78.5.46-142.2,60.43-142.2,134.07s63.71,133.61,142.2,134.07C121.68,308.14,99.37,254.58,99.37,189Z"/><path class="cls-2" d="M279.63,179c-.07-.78-.14-1.56-.21-2.27-.14-1.56-.28-3.05-.42-4.61-.14-.92-.28-1.77-.35-2.7s-.35-2.13-.49-3.19-.35-2.13-.56-3.12c-.28-1.85-.63-3.62-1.06-5.47-.21-.92-.42-1.77-.63-2.7s-.49-1.77-.71-2.7c-.42-1.63-.92-3.27-1.41-4.9-.56-1.85-1.13-3.69-1.76-5.47-.35-.85-.63-1.77-1-2.56-.92-2.56-1.9-5-3-7.45-.28-.78-.63-1.49-1-2.27-.14-.35-.35-.71-.49-1.14-.63-1.28-1.27-2.56-2-3.83-.78-1.56-1.62-3.12-2.47-4.61-1.34-2.27-2.68-4.54-4.09-6.74l-1.48-2.13a24,24,0,0,0-1.48-2.2c-.49-.64-1-1.35-1.48-2.06s-1.06-1.42-1.55-2.06-1.13-1.35-1.62-2.06c-1.06-1.28-2.12-2.56-3.24-3.76,0-.07-.07-.14-.14-.21l-1.62-1.85a127.43,127.43,0,0,0-13.19-12.35c-1.2-1-2.47-2-3.74-2.91L226,79.81c-.56-.35-1.06-.71-1.62-1.07s-1.34-.92-2-1.35-1.41-.92-2.12-1.35-1.48-.85-2.19-1.28-1.41-.85-2.19-1.28c-2.19-1.21-4.37-2.34-6.63-3.34-.78-.35-1.55-.71-2.26-1.07a99.47,99.47,0,0,0-9.66-3.62,17.32,17.32,0,0,0-2-.71c-.85-.21-1.62-.43-2.47-.71l-2.4-.64c-.78-.14-1.62-.35-2.47-.57s-1.62-.35-2.47-.5l-2-.43c-.63-.07-1.27-.21-1.9-.28a17.49,17.49,0,0,0-1.9-.28,11.21,11.21,0,0,0-1.62-.21c-.71-.14-1.48-.21-2.19-.28-1.9-.21-3.88-.36-5.78-.43-1.62-.07-3.24-.14-4.87-.14C143,60.29,124,91,115.27,135.22c7.11-23.4,18.51-38.64,31.41-38.64,45.08,0,81.62,42.49,81.62,94.91s-36.54,94.83-81.62,94.83c-11,0-21-11.08-28-28.89,9.69,36.18,26.83,60.29,46.43,60.29,1.62,0,3.24-.07,4.87-.14,1.9-.07,3.88-.21,5.78-.43.71-.07,1.48-.14,2.19-.28a11.21,11.21,0,0,0,1.62-.21,17.6,17.6,0,0,0,1.9-.28c1.34-.21,2.68-.43,3.95-.71.85-.14,1.69-.28,2.47-.5s1.69-.43,2.47-.57l2.4-.64c.85-.21,1.62-.5,2.47-.71a17.32,17.32,0,0,0,2-.71,99.35,99.35,0,0,0,9.66-3.62c.71-.36,1.48-.71,2.26-1.07,2.26-1,4.44-2.13,6.63-3.34.78-.43,1.48-.85,2.19-1.28s1.41-.85,2.19-1.28,1.41-.85,2.12-1.35,1.34-.85,2-1.35,1.06-.71,1.62-1.06l2.47-1.85c1.27-.92,2.54-1.92,3.74-2.91a127.44,127.44,0,0,0,13.19-12.35l1.62-1.85c.28-.36.63-.71.92-1.07l2.47-2.91c.49-.71,1.06-1.35,1.62-2.06s1-1.35,1.55-2.06c1-1.42,2-2.77,3-4.26l1.48-2.13c1.41-2.2,2.75-4.47,4.09-6.74.85-1.49,1.69-3.05,2.47-4.61.71-1.28,1.34-2.56,2-3.83.14-.43.35-.78.49-1.14.35-.78.71-1.49,1-2.27,1.13-2.41,2.12-4.9,3-7.45.35-.78.63-1.7,1-2.56.63-1.77,1.2-3.62,1.76-5.47.49-1.63,1-3.27,1.41-4.9.21-.92.49-1.85.71-2.7s.42-1.77.63-2.7c.42-1.85.78-3.62,1.06-5.47.21-1,.42-2.06.56-3.12s.35-2.13.49-3.19.21-1.77.35-2.7c.14-1.56.28-3.05.42-4.61.07-.71.14-1.49.21-2.27.21-3.27.35-6.6.35-10S279.84,182.26,279.63,179Z"/><path class="cls-2" d="M307,174.29h71.73v15.37H323.91v24.93h48.61V230H323.91v25.9h55.53v15.37H307Z"/><path class="cls-2" d="M427.78,221.93l-33.93-47.64h20.08L438,209.05l24.24-34.76h19.53L448,221.65l35.17,49.58H463.09l-25.48-36.7L412,271.23H392.46Z"/><path class="cls-2" d="M500.76,174.29H539a48.19,48.19,0,0,1,15.3,2.29,32.57,32.57,0,0,1,11.63,6.58,29,29,0,0,1,7.34,10.25,33.31,33.31,0,0,1,2.56,13.29V207a31.89,31.89,0,0,1-3.05,14.33,29.78,29.78,0,0,1-8.33,10.32,37.13,37.13,0,0,1-12.35,6.3,51.84,51.84,0,0,1-15.13,2.15H517.65v31.16H500.76Zm36.76,50.41q9.72,0,15.35-4.87a15.78,15.78,0,0,0,5.63-12.51V207q0-8.62-5.7-13t-15.29-4.38H517.65v35Z"/><path class="cls-2" d="M589.5,174.29h16.89v81.57h51v15.37H589.5Z"/><path class="cls-2" d="M721.47,272.89A51.82,51.82,0,0,1,701,268.94a48.65,48.65,0,0,1-15.93-10.73,49.17,49.17,0,0,1-10.39-15.86A50.16,50.16,0,0,1,670.93,223v-.28a50.18,50.18,0,0,1,3.74-19.32,48.87,48.87,0,0,1,10.52-15.93,50.51,50.51,0,0,1,36.56-14.89,51.84,51.84,0,0,1,20.5,3.95,48.71,48.71,0,0,1,15.92,10.73,49.25,49.25,0,0,1,10.39,15.86,50.21,50.21,0,0,1,3.74,19.32v.28a50.19,50.19,0,0,1-3.74,19.32A48.9,48.9,0,0,1,758,258a50.51,50.51,0,0,1-36.56,14.89Zm.28-15.65a31.73,31.73,0,0,0,13.17-2.7,31.19,31.19,0,0,0,10.27-7.34,34,34,0,0,0,6.69-10.87A36.47,36.47,0,0,0,754.29,223v-.28a37,37,0,0,0-2.41-13.36,33.21,33.21,0,0,0-6.76-10.94A32.71,32.71,0,0,0,734.71,191,32,32,0,0,0,698,198.32a34,34,0,0,0-6.69,10.87,36.47,36.47,0,0,0-2.41,13.29v.28a37,37,0,0,0,2.41,13.36,33.18,33.18,0,0,0,6.76,10.94,32.63,32.63,0,0,0,10.41,7.41A31.46,31.46,0,0,0,721.75,257.24Z"/><path class="cls-2" d="M792.93,174.29h43.21a47.38,47.38,0,0,1,16.2,2.56A32.59,32.59,0,0,1,864.11,184a28.1,28.1,0,0,1,6,9.28,31.45,31.45,0,0,1,2.08,11.63v.28a31.34,31.34,0,0,1-1.73,10.73,28.06,28.06,0,0,1-4.78,8.45,28.7,28.7,0,0,1-7.27,6.23,36,36,0,0,1-9.35,3.95l26.17,36.7H855.11l-23.89-33.79H809.82v33.79H792.93Zm41.9,48.05q9.16,0,14.58-4.38a14.48,14.48,0,0,0,5.42-11.89v-.28q0-7.93-5.28-12t-14.86-4.1H809.82v32.68Z"/><path class="cls-2" d="M893.05,174.29h71.73v15.37H909.94v24.93h48.61V230H909.94v25.9h55.53v15.37H893.05Z"/><path class="cls-2" d="M985.83,174.29H1029a47.38,47.38,0,0,1,16.2,2.56A32.59,32.59,0,0,1,1057,184a28.1,28.1,0,0,1,6,9.28A31.45,31.45,0,0,1,1065,204.9v.28a31.34,31.34,0,0,1-1.73,10.73,28.06,28.06,0,0,1-4.78,8.45,28.7,28.7,0,0,1-7.27,6.23,36,36,0,0,1-9.35,3.95l26.17,36.7H1048l-23.89-33.79h-21.39v33.79H985.83Zm41.9,48.05q9.16,0,14.58-4.38a14.48,14.48,0,0,0,5.42-11.89v-.28q0-7.93-5.28-12t-14.86-4.1h-24.86v32.68Z"/><path class="cls-2" d="M122,147.66h66.82V162H137.69V185.2H183v14.32H137.69v24.12h51.73V238H122Z"/><path class="cls-3" d="M422,151.3v-1a27.82,27.82,0,0,1-7.91,4.47,26.5,26.5,0,0,1-9.13,1.55,27.18,27.18,0,0,1-27.19-27.19,27.19,27.19,0,1,1,54.37,0V151.3a5.06,5.06,0,0,1-5,5,4.92,4.92,0,0,1-3.62-1.48A4.86,4.86,0,0,1,422,151.3Zm-17-39.18a16.53,16.53,0,0,0-6.7,1.36,17,17,0,0,0-9,9.08,17,17,0,0,0,0,13.2,17,17,0,0,0,9,9.08,17.07,17.07,0,0,0,13.35,0,17.27,17.27,0,0,0,5.41-3.69,17.51,17.51,0,0,0,3.64-5.41,16.87,16.87,0,0,0,0-13.16,17.51,17.51,0,0,0-3.64-5.41,17.27,17.27,0,0,0-5.41-3.69A16.41,16.41,0,0,0,404.95,112.13Z"/><path class="cls-3" d="M451.32,102h2.28V83.73a4.86,4.86,0,0,1,1.48-3.57,4.92,4.92,0,0,1,3.62-1.48,5.06,5.06,0,0,1,5,5V102h6.07a4.78,4.78,0,0,1,3.54,1.48,4.9,4.9,0,0,1,1.46,3.57,5,5,0,0,1-1.46,3.62,4.78,4.78,0,0,1-3.54,1.48h-6.07v24.42q0,9.66,9.71,9.66a4.78,4.78,0,0,1,3.54,1.48,4.9,4.9,0,0,1,1.46,3.57,5,5,0,0,1-1.46,3.62,4.78,4.78,0,0,1-3.54,1.48q-19.86,0-19.86-19.81V112.13h-2.28a4.81,4.81,0,0,1-3.52-1.48,4.92,4.92,0,0,1-1.48-3.62,4.86,4.86,0,0,1,1.48-3.57A4.81,4.81,0,0,1,451.32,102Z"/><path class="cls-3" d="M533.42,151.3v-1a27.82,27.82,0,0,1-7.91,4.47,26.5,26.5,0,0,1-9.13,1.55,27.18,27.18,0,0,1-27.19-27.19,27.19,27.19,0,1,1,54.37,0V151.3a5.06,5.06,0,0,1-5,5,4.92,4.92,0,0,1-3.62-1.48A4.86,4.86,0,0,1,533.42,151.3Zm-17-39.18a16.53,16.53,0,0,0-6.7,1.36,17,17,0,0,0-9,9.08,17,17,0,0,0,0,13.2,17,17,0,0,0,9,9.08,17.07,17.07,0,0,0,13.35,0,17.27,17.27,0,0,0,5.41-3.69,17.51,17.51,0,0,0,3.64-5.41,16.87,16.87,0,0,0,0-13.16,17.51,17.51,0,0,0-3.64-5.41,17.27,17.27,0,0,0-5.41-3.69A16.41,16.41,0,0,0,516.38,112.13Z"/><path class="cls-3" d="M568.1,107A25.19,25.19,0,0,1,593,104a26.55,26.55,0,0,1,8.08,5.41,25.55,25.55,0,0,1,5.53,8.06,24.27,24.27,0,0,1,2,9.88v23.93a4.92,4.92,0,0,1-1.48,3.62,4.86,4.86,0,0,1-3.57,1.48,5.06,5.06,0,0,1-5.1-5.1V127.32a14.46,14.46,0,0,0-1.21-5.87,15.51,15.51,0,0,0-8.11-8.11,14.46,14.46,0,0,0-5.87-1.21,14.66,14.66,0,0,0-5.9,1.19,15.44,15.44,0,0,0-8.11,8.13,14.72,14.72,0,0,0-1.19,5.87v23.93a4.92,4.92,0,0,1-1.48,3.62,4.86,4.86,0,0,1-3.57,1.48,5.06,5.06,0,0,1-5.1-5.1V107.08a4.94,4.94,0,0,1,1.48-3.59A4.88,4.88,0,0,1,563,102a5.1,5.1,0,0,1,5,5Z"/><path class="cls-3" d="M667.14,151.3v-1a27.82,27.82,0,0,1-7.91,4.47,26.5,26.5,0,0,1-9.13,1.55,27.18,27.18,0,0,1-27.19-27.19,27.19,27.19,0,1,1,54.37,0V151.3a5.06,5.06,0,0,1-5,5,4.92,4.92,0,0,1-3.62-1.48A4.86,4.86,0,0,1,667.14,151.3Zm-17-39.18a16.53,16.53,0,0,0-6.7,1.36,17,17,0,0,0-9,9.08,17,17,0,0,0,0,13.2,17,17,0,0,0,9,9.08,17.07,17.07,0,0,0,13.35,0,17.27,17.27,0,0,0,5.41-3.69,17.51,17.51,0,0,0,3.64-5.41,16.87,16.87,0,0,0,0-13.16,17.51,17.51,0,0,0-3.64-5.41,17.27,17.27,0,0,0-5.41-3.69A16.41,16.41,0,0,0,650.1,112.13Z"/><path class="cls-3" d="M335.35,101.16a27.42,27.42,0,0,1,17.76,6.22V82.14a5.1,5.1,0,0,1,5.26-5.26,5.22,5.22,0,0,1,3.77,1.49,5,5,0,0,1,1.54,3.77v47.35a27.08,27.08,0,0,1-8.3,20,28.33,28.33,0,0,1-40.06-40.06A27.3,27.3,0,0,1,335.35,101.16Zm17.76,28.33a17.07,17.07,0,0,0-1.39-6.85,18.28,18.28,0,0,0-3.79-5.64,18,18,0,0,0-5.64-3.84,17.79,17.79,0,0,0-13.91,0,17.76,17.76,0,0,0-9.38,9.46,17.71,17.71,0,0,0,0,13.76,17.76,17.76,0,0,0,9.38,9.46,17.79,17.79,0,0,0,13.91,0,18,18,0,0,0,5.64-3.84,18.26,18.26,0,0,0,3.79-5.64A17.06,17.06,0,0,0,353.11,129.49Z"/></svg>