<?xml version="1.0" encoding="utf-8"?>
<!-- Generator: Adobe Illustrator 21.1.0, SVG Export Plug-In . SVG Version: 6.00 Build 0)  -->
<svg version="1.1" id="Layer_1" xmlns="http://www.w3.org/2000/svg" xmlns:xlink="http://www.w3.org/1999/xlink" x="0px" y="0px"
	 viewBox="0 0 1081 378" style="enable-background:new 0 0 1081 378;" xml:space="preserve">
<style type="text/css">
	.st0{fill:#037C59;}
	.st1{fill:#00B182;}
	.st2{fill:#5A595C;}
</style>
<g>
	<path class="st0" d="M99.4,189c0-65.6,22.3-119.1,53.3-134.1C74.1,55.4,10.4,115.4,10.4,189s63.7,133.6,142.2,134.1
		C121.7,308.1,99.4,254.6,99.4,189z"/>
</g>
<g>
	<g>
		<path class="st1" d="M279.6,179c-0.1-0.8-0.1-1.6-0.2-2.3c-0.1-1.6-0.3-3.1-0.4-4.6c-0.1-0.9-0.3-1.8-0.4-2.7
			c-0.1-1.1-0.4-2.1-0.5-3.2c-0.1-1.1-0.4-2.1-0.6-3.1c-0.3-1.8-0.6-3.6-1.1-5.5c-0.2-0.9-0.4-1.8-0.6-2.7c-0.2-0.9-0.5-1.8-0.7-2.7
			c-0.4-1.6-0.9-3.3-1.4-4.9c-0.6-1.8-1.1-3.7-1.8-5.5c-0.4-0.9-0.6-1.8-1-2.6c-0.9-2.6-1.9-5-3-7.5c-0.3-0.8-0.6-1.5-1-2.3
			c-0.1-0.4-0.4-0.7-0.5-1.1c-0.6-1.3-1.3-2.6-2-3.8c-0.8-1.6-1.6-3.1-2.5-4.6c-1.3-2.3-2.7-4.5-4.1-6.7c-0.5-0.7-1-1.4-1.5-2.1
			c-0.5-0.8-0.9-1.5-1.5-2.2c-0.5-0.6-1-1.3-1.5-2.1c-0.6-0.7-1.1-1.4-1.6-2.1c-0.6-0.7-1.1-1.3-1.6-2.1c-1.1-1.3-2.1-2.6-3.2-3.8
			c0-0.1-0.1-0.1-0.1-0.2c-0.6-0.6-1.1-1.3-1.6-1.8c-4.2-4.5-8.5-8.6-13.2-12.4c-1.2-1-2.5-2-3.7-2.9c-0.8-0.6-1.6-1.2-2.5-1.8
			c-0.6-0.4-1.1-0.7-1.6-1.1c-0.7-0.5-1.3-0.9-2-1.3c-0.7-0.5-1.4-0.9-2.1-1.3c-0.8-0.4-1.5-0.9-2.2-1.3c-0.7-0.4-1.4-0.9-2.2-1.3
			c-2.2-1.2-4.4-2.3-6.6-3.3c-0.8-0.4-1.6-0.7-2.3-1.1c-3.2-1.3-6.4-2.6-9.7-3.6c-0.6-0.3-1.3-0.5-2-0.7c-0.8-0.2-1.6-0.4-2.5-0.7
			c-0.8-0.2-1.6-0.4-2.4-0.6c-0.8-0.1-1.6-0.4-2.5-0.6c-0.8-0.2-1.6-0.4-2.5-0.5c-0.6-0.1-1.3-0.3-2-0.4c-0.6-0.1-1.3-0.2-1.9-0.3
			c-0.6-0.1-1.3-0.2-1.9-0.3c-0.5-0.1-1.1-0.1-1.6-0.2c-0.7-0.1-1.5-0.2-2.2-0.3c-1.9-0.2-3.9-0.4-5.8-0.4c-1.6-0.1-3.2-0.1-4.9-0.1
			c-22.1,0-41.1,30.7-49.8,74.9c7.1-23.4,18.5-38.6,31.4-38.6c45.1,0,81.6,42.5,81.6,94.9c0,52.4-36.5,94.8-81.6,94.8
			c-11,0-21-11.1-28-28.9c9.7,36.2,26.8,60.3,46.4,60.3c1.6,0,3.2-0.1,4.9-0.1c1.9-0.1,3.9-0.2,5.8-0.4c0.7-0.1,1.5-0.1,2.2-0.3
			c0.6-0.1,1.1-0.1,1.6-0.2c0.6-0.1,1.3-0.1,1.9-0.3c1.3-0.2,2.7-0.4,3.9-0.7c0.8-0.1,1.7-0.3,2.5-0.5c0.8-0.2,1.7-0.4,2.5-0.6
			c0.8-0.2,1.6-0.4,2.4-0.6c0.8-0.2,1.6-0.5,2.5-0.7c0.7-0.2,1.4-0.4,2-0.7c3.2-1,6.5-2.3,9.7-3.6c0.7-0.4,1.5-0.7,2.3-1.1
			c2.3-1,4.4-2.1,6.6-3.3c0.8-0.4,1.5-0.9,2.2-1.3c0.7-0.4,1.4-0.9,2.2-1.3c0.7-0.4,1.4-0.9,2.1-1.3c0.7-0.4,1.3-0.9,2-1.3
			c0.6-0.4,1.1-0.7,1.6-1.1c0.8-0.6,1.6-1.2,2.5-1.8c1.3-0.9,2.5-1.9,3.7-2.9c4.7-3.8,9-7.9,13.2-12.4c0.5-0.6,1.1-1.2,1.6-1.8
			c0.3-0.4,0.6-0.7,0.9-1.1c0.8-0.9,1.6-1.9,2.5-2.9c0.5-0.7,1.1-1.3,1.6-2.1c0.5-0.7,1-1.3,1.6-2.1c1-1.4,2-2.8,3-4.3
			c0.5-0.7,1-1.4,1.5-2.1c1.4-2.2,2.8-4.5,4.1-6.7c0.8-1.5,1.7-3.1,2.5-4.6c0.7-1.3,1.3-2.6,2-3.8c0.1-0.4,0.4-0.8,0.5-1.1
			c0.4-0.8,0.7-1.5,1-2.3c1.1-2.4,2.1-4.9,3-7.5c0.4-0.8,0.6-1.7,1-2.6c0.6-1.8,1.2-3.6,1.8-5.5c0.5-1.6,1-3.3,1.4-4.9
			c0.2-0.9,0.5-1.8,0.7-2.7c0.2-0.9,0.4-1.8,0.6-2.7c0.4-1.8,0.8-3.6,1.1-5.5c0.2-1,0.4-2.1,0.6-3.1c0.1-1.1,0.4-2.1,0.5-3.2
			c0.1-0.9,0.2-1.8,0.4-2.7c0.1-1.6,0.3-3.1,0.4-4.6c0.1-0.7,0.1-1.5,0.2-2.3c0.2-3.3,0.4-6.6,0.4-10S279.8,182.3,279.6,179z"/>
	</g>
</g>
<g>
	<path class="st1" d="M307,174.3h71.7v15.4h-54.8v24.9h48.6V230h-48.6v25.9h55.5v15.4H307V174.3z"/>
	<path class="st1" d="M427.8,221.9l-33.9-47.6h20.1l24.1,34.8l24.2-34.8h19.5L448,221.7l35.2,49.6h-20.1l-25.5-36.7L412,271.2h-19.5
		L427.8,221.9z"/>
	<path class="st1" d="M500.8,174.3H539c5.6,0,10.7,0.8,15.3,2.3c4.6,1.5,8.4,3.7,11.6,6.6c3.2,2.9,5.6,6.3,7.3,10.2
		c1.7,4,2.6,8.4,2.6,13.3v0.3c0,5.4-1,10.2-3.1,14.3c-2,4.1-4.8,7.5-8.3,10.3c-3.5,2.8-7.6,4.9-12.4,6.3c-4.7,1.4-9.8,2.1-15.1,2.1
		h-19.3v31.2h-16.9V174.3z M537.5,224.7c6.5,0,11.6-1.6,15.4-4.9c3.8-3.2,5.6-7.4,5.6-12.5V207c0-5.7-1.9-10.1-5.7-13
		c-3.8-2.9-8.9-4.4-15.3-4.4h-19.9v35H537.5z"/>
	<path class="st1" d="M589.5,174.3h16.9v81.6h51v15.4h-67.9V174.3z"/>
	<path class="st1" d="M721.5,272.9c-7.5,0-14.3-1.3-20.5-3.9c-6.2-2.6-11.5-6.2-15.9-10.7c-4.4-4.5-7.9-9.8-10.4-15.9
		c-2.5-6-3.7-12.5-3.7-19.3v-0.3c0-6.8,1.2-13.3,3.7-19.3c2.5-6,6-11.4,10.5-15.9c4.5-4.6,9.9-8.2,16.1-10.9c6.2-2.7,13-4,20.5-4
		c7.5,0,14.3,1.3,20.5,3.9c6.2,2.6,11.5,6.2,15.9,10.7c4.4,4.5,7.9,9.8,10.4,15.9c2.5,6,3.7,12.5,3.7,19.3v0.3
		c0,6.8-1.2,13.3-3.7,19.3c-2.5,6-6,11.4-10.5,15.9c-4.5,4.6-9.9,8.2-16.1,10.9C735.8,271.6,728.9,272.9,721.5,272.9z M721.7,257.2
		c4.8,0,9.2-0.9,13.2-2.7c4-1.8,7.4-4.2,10.3-7.3c2.9-3.1,5.1-6.7,6.7-10.9s2.4-8.6,2.4-13.3v-0.3c0-4.7-0.8-9.2-2.4-13.4
		c-1.6-4.2-3.9-7.8-6.8-10.9c-2.9-3.1-6.4-5.6-10.4-7.4c-4-1.8-8.5-2.8-13.2-2.8c-4.8,0-9.2,0.9-13.2,2.7c-4,1.8-7.4,4.2-10.3,7.3
		c-2.9,3.1-5.1,6.7-6.7,10.9s-2.4,8.6-2.4,13.3v0.3c0,4.7,0.8,9.2,2.4,13.4c1.6,4.2,3.9,7.8,6.8,10.9c2.9,3.1,6.4,5.6,10.4,7.4
		C712.6,256.3,717,257.2,721.7,257.2z"/>
	<path class="st1" d="M792.9,174.3h43.2c6.1,0,11.5,0.9,16.2,2.6c4.7,1.7,8.6,4.1,11.8,7.1c2.6,2.7,4.6,5.8,6,9.3
		c1.4,3.5,2.1,7.4,2.1,11.6v0.3c0,4-0.6,7.5-1.7,10.7c-1.2,3.2-2.7,6-4.8,8.4c-2,2.4-4.5,4.5-7.3,6.2c-2.8,1.7-5.9,3-9.3,3.9
		l26.2,36.7h-20.1l-23.9-33.8h-0.3h-21.1v33.8h-16.9V174.3z M834.8,222.3c6.1,0,11-1.5,14.6-4.4c3.6-2.9,5.4-6.9,5.4-11.9v-0.3
		c0-5.3-1.8-9.3-5.3-12c-3.5-2.7-8.5-4.1-14.9-4.1h-24.9v32.7H834.8z"/>
	<path class="st1" d="M893.1,174.3h71.7v15.4h-54.8v24.9h48.6V230h-48.6v25.9h55.5v15.4h-72.4V174.3z"/>
	<path class="st1" d="M985.8,174.3h43.2c6.1,0,11.5,0.9,16.2,2.6c4.7,1.7,8.6,4.1,11.8,7.1c2.6,2.7,4.6,5.8,6,9.3
		c1.4,3.5,2.1,7.4,2.1,11.6v0.3c0,4-0.6,7.5-1.7,10.7c-1.2,3.2-2.7,6-4.8,8.4c-2,2.4-4.5,4.5-7.3,6.2c-2.8,1.7-5.9,3-9.3,3.9
		l26.2,36.7H1048l-23.9-33.8h-0.3h-21.1v33.8h-16.9V174.3z M1027.7,222.3c6.1,0,11-1.5,14.6-4.4c3.6-2.9,5.4-6.9,5.4-11.9v-0.3
		c0-5.3-1.8-9.3-5.3-12c-3.5-2.7-8.5-4.1-14.9-4.1h-24.9v32.7H1027.7z"/>
</g>
<g>
	<path class="st1" d="M122,147.7h66.8V162h-51.1v23.2H183v14.3h-45.3v24.1h51.7V238H122V147.7z"/>
</g>
<g>
	<path class="st2" d="M422,151.3v-1c-2.4,1.9-5.1,3.4-7.9,4.5c-2.8,1-5.9,1.6-9.1,1.6c-7.5,0-13.9-2.7-19.2-8
		c-5.3-5.3-8-11.7-8-19.2c0-7.5,2.7-13.9,8-19.2c5.3-5.3,11.7-8,19.2-8c7.4,0,13.9,2.7,19.2,8c5.3,5.3,8,11.7,8,19.2v22.1
		c0,1.4-0.5,2.6-1.5,3.6s-2.2,1.5-3.6,1.5c-1.4,0-2.6-0.5-3.6-1.5S422,152.7,422,151.3z M404.9,112.1c-2.4,0-4.6,0.5-6.7,1.4
		c-2.1,0.9-3.9,2.1-5.4,3.7c-1.5,1.5-2.7,3.3-3.6,5.4c-0.9,2.1-1.3,4.3-1.3,6.6s0.4,4.5,1.3,6.6c0.9,2.1,2.1,3.9,3.6,5.4
		c1.5,1.5,3.3,2.8,5.4,3.7c2.1,0.9,4.3,1.4,6.7,1.4c2.4,0,4.6-0.5,6.7-1.4c2.1-0.9,3.9-2.1,5.4-3.7c1.5-1.6,2.8-3.4,3.6-5.4
		c0.9-2.1,1.3-4.2,1.3-6.6s-0.4-4.5-1.3-6.6c-0.9-2.1-2.1-3.9-3.6-5.4c-1.5-1.6-3.3-2.8-5.4-3.7
		C409.5,112.6,407.3,112.1,404.9,112.1z"/>
	<path class="st2" d="M451.3,102h2.3V83.7c0-1.4,0.5-2.6,1.5-3.6s2.2-1.5,3.6-1.5c1.4,0,2.6,0.5,3.6,1.5s1.5,2.2,1.5,3.6V102h6.1
		c1.4,0,2.6,0.5,3.5,1.5c1,1,1.5,2.2,1.5,3.6c0,1.4-0.5,2.6-1.5,3.6s-2.2,1.5-3.5,1.5h-6.1v24.4c0,6.4,3.2,9.7,9.7,9.7
		c1.4,0,2.6,0.5,3.5,1.5s1.5,2.2,1.5,3.6c0,1.4-0.5,2.6-1.5,3.6s-2.2,1.5-3.5,1.5c-13.2,0-19.9-6.6-19.9-19.8v-24.4h-2.3
		c-1.4,0-2.5-0.5-3.5-1.5c-1-1-1.5-2.2-1.5-3.6c0-1.4,0.5-2.6,1.5-3.6C448.8,102.5,450,102,451.3,102z"/>
	<path class="st2" d="M533.4,151.3v-1c-2.4,1.9-5.1,3.4-7.9,4.5c-2.8,1-5.9,1.6-9.1,1.6c-7.5,0-13.9-2.7-19.2-8
		c-5.3-5.3-8-11.7-8-19.2c0-7.5,2.7-13.9,8-19.2c5.3-5.3,11.7-8,19.2-8c7.4,0,13.9,2.7,19.2,8c5.3,5.3,8,11.7,8,19.2v22.1
		c0,1.4-0.5,2.6-1.5,3.6s-2.2,1.5-3.6,1.5c-1.4,0-2.6-0.5-3.6-1.5S533.4,152.7,533.4,151.3z M516.4,112.1c-2.4,0-4.6,0.5-6.7,1.4
		c-2.1,0.9-3.9,2.1-5.4,3.7c-1.5,1.5-2.7,3.3-3.6,5.4s-1.3,4.3-1.3,6.6s0.4,4.5,1.3,6.6c0.9,2.1,2.1,3.9,3.6,5.4s3.3,2.8,5.4,3.7
		c2.1,0.9,4.3,1.4,6.7,1.4c2.4,0,4.6-0.5,6.7-1.4s3.9-2.1,5.4-3.7c1.5-1.6,2.8-3.4,3.6-5.4c0.9-2.1,1.3-4.2,1.3-6.6
		s-0.4-4.5-1.3-6.6c-0.9-2.1-2.1-3.9-3.6-5.4c-1.5-1.6-3.3-2.8-5.4-3.7S518.7,112.1,516.4,112.1z"/>
	<path class="st2" d="M568.1,107c4.3-3.3,9.4-5,15.2-5c3.4,0,6.6,0.7,9.7,2c3.1,1.3,5.8,3.1,8.1,5.4s4.2,5,5.5,8.1s2,6.4,2,9.9v23.9
		c0,1.4-0.5,2.6-1.5,3.6s-2.2,1.5-3.6,1.5c-1.4,0-2.6-0.5-3.6-1.5c-1-1-1.5-2.2-1.5-3.6v-23.9c0-2.1-0.4-4-1.2-5.9s-1.9-3.5-3.3-4.8
		c-1.4-1.4-3-2.5-4.8-3.3c-1.8-0.8-3.8-1.2-5.9-1.2c-2.1,0-4.1,0.4-5.9,1.2c-1.8,0.8-3.4,1.9-4.8,3.3c-1.4,1.4-2.5,3-3.3,4.9
		c-0.8,1.8-1.2,3.8-1.2,5.9v23.9c0,1.4-0.5,2.6-1.5,3.6c-1,1-2.2,1.5-3.6,1.5c-1.4,0-2.6-0.5-3.6-1.5s-1.5-2.2-1.5-3.6v-44.2
		c0-1.4,0.5-2.6,1.5-3.6c1-1,2.2-1.5,3.6-1.5c1.4,0,2.6,0.5,3.6,1.5C567.6,104.5,568.1,105.7,568.1,107z"/>
	<path class="st2" d="M667.1,151.3v-1c-2.4,1.9-5.1,3.4-7.9,4.5c-2.8,1-5.9,1.6-9.1,1.6c-7.5,0-13.9-2.7-19.2-8
		c-5.3-5.3-8-11.7-8-19.2c0-7.5,2.7-13.9,8-19.2c5.3-5.3,11.7-8,19.2-8c7.4,0,13.9,2.7,19.2,8c5.3,5.3,8,11.7,8,19.2v22.1
		c0,1.4-0.5,2.6-1.5,3.6s-2.2,1.5-3.6,1.5c-1.4,0-2.6-0.5-3.6-1.5C667.6,153.9,667.1,152.7,667.1,151.3z M650.1,112.1
		c-2.4,0-4.6,0.5-6.7,1.4s-3.9,2.1-5.4,3.7c-1.5,1.5-2.7,3.3-3.6,5.4c-0.9,2.1-1.3,4.3-1.3,6.6s0.4,4.5,1.3,6.6
		c0.9,2.1,2.1,3.9,3.6,5.4c1.5,1.5,3.3,2.8,5.4,3.7s4.3,1.4,6.7,1.4c2.4,0,4.6-0.5,6.7-1.4s3.9-2.1,5.4-3.7c1.5-1.6,2.8-3.4,3.6-5.4
		c0.9-2.1,1.3-4.2,1.3-6.6s-0.4-4.5-1.3-6.6c-0.9-2.1-2.1-3.9-3.6-5.4c-1.5-1.6-3.3-2.8-5.4-3.7S652.5,112.1,650.1,112.1z"/>
	<g>
		<path class="st2" d="M335.3,101.2c6.7,0,12.6,2.1,17.8,6.2V82.1c0-1.5,0.5-2.8,1.5-3.8c1-1,2.3-1.5,3.8-1.5c1.5,0,2.7,0.5,3.8,1.5
			c1,1,1.5,2.3,1.5,3.8v47.3c0,7.9-2.8,14.6-8.3,20c-5.6,5.5-12.3,8.3-20,8.3c-7.8,0-14.5-2.8-20-8.3c-5.5-5.5-8.3-12.2-8.3-20
			c0-7.8,2.8-14.5,8.3-20C320.8,103.9,327.5,101.2,335.3,101.2z M353.1,129.5c0-2.4-0.5-4.7-1.4-6.9c-0.9-2.1-2.2-4-3.8-5.6
			c-1.6-1.6-3.5-2.9-5.6-3.8c-2.2-0.9-4.5-1.4-6.9-1.4c-2.5,0-4.8,0.5-7,1.4c-2.2,0.9-4,2.2-5.6,3.8c-1.6,1.6-2.8,3.5-3.8,5.6
			c-0.9,2.2-1.4,4.5-1.4,6.9c0,2.4,0.5,4.7,1.4,6.9c0.9,2.2,2.2,4,3.8,5.6c1.6,1.6,3.5,2.9,5.6,3.8c2.2,0.9,4.5,1.4,7,1.4
			c2.5,0,4.8-0.5,6.9-1.4c2.2-0.9,4-2.2,5.6-3.8c1.6-1.6,2.9-3.5,3.8-5.6C352.6,134.2,353.1,131.9,353.1,129.5z"/>
	</g>
</g>
</svg>
