<svg id="Layer_1" data-name="Layer 1" xmlns="http://www.w3.org/2000/svg" viewBox="0 0 1200 378"><defs><style>.cls-1{fill:#037c59;}.cls-2{fill:#00b182;}.cls-3{fill:#5a595c;}</style></defs><title>D_Expolorer</title><path class="cls-1" d="M99.37,189c0-65.58,22.31-119.14,53.27-134.07-78.5.46-142.2,60.43-142.2,134.07s63.71,133.61,142.2,134.07C121.68,308.14,99.37,254.58,99.37,189Z"/><path class="cls-2" d="M279.63,179c-.07-.78-.14-1.56-.21-2.27-.14-1.56-.28-3.05-.42-4.61-.14-.92-.28-1.77-.35-2.7s-.35-2.13-.49-3.19-.35-2.13-.56-3.12c-.28-1.85-.63-3.62-1.06-5.47-.21-.92-.42-1.77-.63-2.7s-.49-1.77-.71-2.7c-.42-1.63-.92-3.27-1.41-4.9-.56-1.85-1.13-3.69-1.76-5.47-.35-.85-.63-1.77-1-2.56-.92-2.56-1.9-5-3-7.45-.28-.78-.63-1.49-1-2.27-.14-.35-.35-.71-.49-1.14-.63-1.28-1.27-2.56-2-3.83-.78-1.56-1.62-3.12-2.47-4.61-1.34-2.27-2.68-4.54-4.09-6.74l-1.48-2.13a24,24,0,0,0-1.48-2.2c-.49-.64-1-1.35-1.48-2.06s-1.06-1.42-1.55-2.06-1.13-1.35-1.62-2.06c-1.06-1.28-2.12-2.56-3.24-3.76,0-.07-.07-.14-.14-.21l-1.62-1.85a127.43,127.43,0,0,0-13.19-12.35c-1.2-1-2.47-2-3.74-2.91L226,79.81c-.56-.35-1.06-.71-1.62-1.07s-1.34-.92-2-1.35-1.41-.92-2.12-1.35-1.48-.85-2.19-1.28-1.41-.85-2.19-1.28c-2.19-1.21-4.37-2.34-6.63-3.34-.78-.35-1.55-.71-2.26-1.07a99.47,99.47,0,0,0-9.66-3.62,17.32,17.32,0,0,0-2-.71c-.85-.21-1.62-.43-2.47-.71l-2.4-.64c-.78-.14-1.62-.35-2.47-.57s-1.62-.35-2.47-.5l-2-.43c-.63-.07-1.27-.21-1.9-.28a17.49,17.49,0,0,0-1.9-.28,11.21,11.21,0,0,0-1.62-.21c-.71-.14-1.48-.21-2.19-.28-1.9-.21-3.88-.36-5.78-.43-1.62-.07-3.24-.14-4.87-.14C143,60.29,124,91,115.27,135.22c7.11-23.4,18.51-38.64,31.41-38.64,45.08,0,81.62,42.49,81.62,94.91s-36.54,94.83-81.62,94.83c-11,0-21-11.08-28-28.89,9.69,36.18,26.83,60.29,46.43,60.29,1.62,0,3.24-.07,4.87-.14,1.9-.07,3.88-.21,5.78-.43.71-.07,1.48-.14,2.19-.28a11.21,11.21,0,0,0,1.62-.21,17.6,17.6,0,0,0,1.9-.28c1.34-.21,2.68-.43,3.95-.71.85-.14,1.69-.28,2.47-.5s1.69-.43,2.47-.57l2.4-.64c.85-.21,1.62-.5,2.47-.71a17.32,17.32,0,0,0,2-.71,99.35,99.35,0,0,0,9.66-3.62c.71-.36,1.48-.71,2.26-1.07,2.26-1,4.44-2.13,6.63-3.34.78-.43,1.48-.85,2.19-1.28s1.41-.85,2.19-1.28,1.41-.85,2.12-1.35,1.34-.85,2-1.35,1.06-.71,1.62-1.06l2.47-1.85c1.27-.92,2.54-1.92,3.74-2.91a127.44,127.44,0,0,0,13.19-12.35l1.62-1.85c.28-.36.63-.71.92-1.07l2.47-2.91c.49-.71,1.06-1.35,1.62-2.06s1-1.35,1.55-2.06c1-1.42,2-2.77,3-4.26l1.48-2.13c1.41-2.2,2.75-4.47,4.09-6.74.85-1.49,1.69-3.05,2.47-4.61.71-1.28,1.34-2.56,2-3.83.14-.43.35-.78.49-1.14.35-.78.71-1.49,1-2.27,1.13-2.41,2.12-4.9,3-7.45.35-.78.63-1.7,1-2.56.63-1.77,1.2-3.62,1.76-5.47.49-1.63,1-3.27,1.41-4.9.21-.92.49-1.85.71-2.7s.42-1.77.63-2.7c.42-1.85.78-3.62,1.06-5.47.21-1,.42-2.06.56-3.12s.35-2.13.49-3.19.21-1.77.35-2.7c.14-1.56.28-3.05.42-4.61.07-.71.14-1.49.21-2.27.21-3.27.35-6.6.35-10S279.84,182.26,279.63,179Z"/><path class="cls-2" d="M307,174.29h71.73v15.37H323.91v24.93h48.61V230H323.91v25.9h55.53v15.37H307Z"/><path class="cls-2" d="M427.78,221.93l-33.93-47.64h20.08L438,209.05l24.24-34.76h19.53L448,221.65l35.17,49.58H463.09l-25.48-36.7L412,271.23H392.46Z"/><path class="cls-2" d="M500.76,174.29H539a48.19,48.19,0,0,1,15.3,2.29,32.57,32.57,0,0,1,11.63,6.58,29,29,0,0,1,7.34,10.25,33.31,33.31,0,0,1,2.56,13.29V207a31.89,31.89,0,0,1-3.05,14.33,29.78,29.78,0,0,1-8.33,10.32,37.13,37.13,0,0,1-12.35,6.3,51.84,51.84,0,0,1-15.13,2.15H517.65v31.16H500.76Zm36.76,50.41q9.72,0,15.35-4.87a15.78,15.78,0,0,0,5.63-12.51V207q0-8.62-5.7-13t-15.29-4.38H517.65v35Z"/><path class="cls-2" d="M639.51,272.89A51.82,51.82,0,0,1,619,268.94a48.65,48.65,0,0,1-15.93-10.73,49.17,49.17,0,0,1-10.39-15.86A50.16,50.16,0,0,1,589,223v-.28a50.18,50.18,0,0,1,3.74-19.32,48.87,48.87,0,0,1,10.52-15.93,50.51,50.51,0,0,1,36.56-14.89,51.84,51.84,0,0,1,20.5,3.95,48.71,48.71,0,0,1,15.92,10.73,49.25,49.25,0,0,1,10.39,15.86,50.21,50.21,0,0,1,3.74,19.32v.28a50.19,50.19,0,0,1-3.74,19.32A48.9,48.9,0,0,1,676.07,258a50.51,50.51,0,0,1-36.56,14.89Zm.28-15.65a31.73,31.73,0,0,0,13.17-2.7,31.19,31.19,0,0,0,10.27-7.34,34,34,0,0,0,6.69-10.87A36.47,36.47,0,0,0,672.33,223v-.28a37,37,0,0,0-2.41-13.36,33.21,33.21,0,0,0-6.76-10.94A32.71,32.71,0,0,0,652.75,191a32,32,0,0,0-36.68,7.27,34,34,0,0,0-6.69,10.87A36.47,36.47,0,0,0,607,222.48v.28a37,37,0,0,0,2.41,13.36,33.18,33.18,0,0,0,6.76,10.94,32.63,32.63,0,0,0,10.41,7.41A31.46,31.46,0,0,0,639.79,257.24Z"/><path class="cls-2" d="M711,174.29h16.89v81.57h51v15.37H711Z"/><path class="cls-2" d="M842.94,272.89a51.82,51.82,0,0,1-20.49-3.95,48.65,48.65,0,0,1-15.93-10.73,49.17,49.17,0,0,1-10.39-15.86A50.16,50.16,0,0,1,792.4,223v-.28a50.18,50.18,0,0,1,3.74-19.32,48.87,48.87,0,0,1,10.52-15.93,50.51,50.51,0,0,1,36.56-14.89,51.84,51.84,0,0,1,20.5,3.95,48.71,48.71,0,0,1,15.92,10.73A49.25,49.25,0,0,1,890,203.16a50.21,50.21,0,0,1,3.74,19.32v.28A50.19,50.19,0,0,1,890,242.08,48.9,48.9,0,0,1,879.5,258a50.51,50.51,0,0,1-36.56,14.89Zm.28-15.65a31.73,31.73,0,0,0,13.17-2.7,31.19,31.19,0,0,0,10.27-7.34,34,34,0,0,0,6.69-10.87A36.47,36.47,0,0,0,875.76,223v-.28a37,37,0,0,0-2.41-13.36,33.21,33.21,0,0,0-6.76-10.94A32.71,32.71,0,0,0,856.18,191a32,32,0,0,0-36.68,7.27,34,34,0,0,0-6.69,10.87,36.47,36.47,0,0,0-2.41,13.29v.28a37,37,0,0,0,2.41,13.36,33.18,33.18,0,0,0,6.76,10.94A32.63,32.63,0,0,0,830,254.47,31.46,31.46,0,0,0,843.22,257.24Z"/><path class="cls-2" d="M914.4,174.29H957.6a47.38,47.38,0,0,1,16.2,2.56A32.59,32.59,0,0,1,985.58,184a28.1,28.1,0,0,1,6,9.28,31.45,31.45,0,0,1,2.08,11.63v.28a31.34,31.34,0,0,1-1.73,10.73,28.06,28.06,0,0,1-4.78,8.45,28.7,28.7,0,0,1-7.27,6.23,36,36,0,0,1-9.35,3.95l26.17,36.7H976.58l-23.89-33.79H931.29v33.79H914.4Zm41.9,48.05q9.16,0,14.58-4.38a14.48,14.48,0,0,0,5.42-11.89v-.28q0-7.93-5.28-12t-14.86-4.1H931.29v32.68Z"/><path class="cls-2" d="M1014.52,174.29h71.73v15.37h-54.84v24.93H1080V230h-48.61v25.9h55.53v15.37h-72.43Z"/><path class="cls-2" d="M1107.3,174.29h43.21a47.38,47.38,0,0,1,16.2,2.56,32.59,32.59,0,0,1,11.77,7.13,28.1,28.1,0,0,1,6,9.28,31.45,31.45,0,0,1,2.08,11.63v.28a31.34,31.34,0,0,1-1.73,10.73,28.06,28.06,0,0,1-4.78,8.45,28.7,28.7,0,0,1-7.27,6.23,36,36,0,0,1-9.35,3.95l26.17,36.7h-20.08l-23.89-33.79H1124.2v33.79H1107.3Zm41.9,48.05q9.16,0,14.58-4.38a14.48,14.48,0,0,0,5.42-11.89v-.28q0-7.93-5.28-12t-14.86-4.1H1124.2v32.68Z"/><path class="cls-2" d="M122,147.66h66.82V162H137.69V185.2H183v14.32H137.69v24.12h51.73V238H122Z"/><path class="cls-3" d="M409.39,149.58v-.86a24.77,24.77,0,0,1-7,4,23.6,23.6,0,0,1-8.13,1.38,24.21,24.21,0,0,1-17.12-41.32,24.21,24.21,0,0,1,41.32,17.12v19.71a4.5,4.5,0,0,1-4.5,4.5,4.38,4.38,0,0,1-3.22-1.32A4.33,4.33,0,0,1,409.39,149.58ZM394.21,114.7a14.72,14.72,0,0,0-6,1.21,15.18,15.18,0,0,0-8,8.08,15.13,15.13,0,0,0,0,11.76,15.18,15.18,0,0,0,8,8.08,15.2,15.2,0,0,0,11.89,0,15.38,15.38,0,0,0,4.82-3.29,15.59,15.59,0,0,0,3.24-4.82,15,15,0,0,0,0-11.71,15.59,15.59,0,0,0-3.24-4.82,15.38,15.38,0,0,0-4.82-3.29A14.61,14.61,0,0,0,394.21,114.7Z"/><path class="cls-3" d="M435.5,105.66h2V89.41a4.33,4.33,0,0,1,1.32-3.18,4.38,4.38,0,0,1,3.22-1.32,4.5,4.5,0,0,1,4.5,4.5v16.25H452a4.26,4.26,0,0,1,3.16,1.32,4.37,4.37,0,0,1,1.3,3.18,4.42,4.42,0,0,1-1.3,3.22A4.26,4.26,0,0,1,452,114.7h-5.4v21.74q0,8.6,8.65,8.6a4.26,4.26,0,0,1,3.16,1.32,4.37,4.37,0,0,1,1.3,3.18,4.42,4.42,0,0,1-1.3,3.22,4.26,4.26,0,0,1-3.16,1.32q-17.68,0-17.68-17.64V114.7h-2a4.28,4.28,0,0,1-3.13-1.32,4.38,4.38,0,0,1-1.32-3.22,4.33,4.33,0,0,1,1.32-3.18A4.28,4.28,0,0,1,435.5,105.66Z"/><path class="cls-3" d="M508.61,149.58v-.86a24.77,24.77,0,0,1-7,4,23.6,23.6,0,0,1-8.13,1.38,24.21,24.21,0,0,1-17.12-41.32,24.21,24.21,0,0,1,41.32,17.12v19.71a4.5,4.5,0,0,1-4.5,4.5,4.38,4.38,0,0,1-3.22-1.32A4.33,4.33,0,0,1,508.61,149.58ZM493.44,114.7a14.72,14.72,0,0,0-6,1.21,15.18,15.18,0,0,0-8,8.08,15.13,15.13,0,0,0,0,11.76,15.18,15.18,0,0,0,8,8.08,15.2,15.2,0,0,0,11.89,0,15.38,15.38,0,0,0,4.82-3.29,15.59,15.59,0,0,0,3.24-4.82,15,15,0,0,0,0-11.71,15.59,15.59,0,0,0-3.24-4.82,15.38,15.38,0,0,0-4.82-3.29A14.61,14.61,0,0,0,493.44,114.7Z"/><path class="cls-3" d="M539.48,110.12a22.43,22.43,0,0,1,22.15-2.68,23.64,23.64,0,0,1,7.2,4.82,22.75,22.75,0,0,1,4.93,7.18,21.61,21.61,0,0,1,1.82,8.8v21.31a4.38,4.38,0,0,1-1.32,3.22,4.33,4.33,0,0,1-3.18,1.32,4.5,4.5,0,0,1-4.54-4.54V128.23a12.88,12.88,0,0,0-1.08-5.23,13.81,13.81,0,0,0-7.22-7.22A12.88,12.88,0,0,0,553,114.7a13.06,13.06,0,0,0-5.25,1.06,13.75,13.75,0,0,0-7.22,7.24,13.1,13.1,0,0,0-1.06,5.23v21.31a4.38,4.38,0,0,1-1.32,3.22,4.33,4.33,0,0,1-3.18,1.32,4.5,4.5,0,0,1-4.54-4.54V110.2a4.4,4.4,0,0,1,1.32-3.2,4.35,4.35,0,0,1,3.22-1.34,4.54,4.54,0,0,1,4.5,4.45Z"/><path class="cls-3" d="M627.67,149.58v-.86a24.77,24.77,0,0,1-7,4,23.6,23.6,0,0,1-8.13,1.38,24.21,24.21,0,0,1-17.12-41.32,24.21,24.21,0,0,1,41.32,17.12v19.71a4.5,4.5,0,0,1-4.5,4.5,4.38,4.38,0,0,1-3.22-1.32A4.33,4.33,0,0,1,627.67,149.58ZM612.5,114.7a14.72,14.72,0,0,0-6,1.21,15.18,15.18,0,0,0-8,8.08,15.13,15.13,0,0,0,0,11.76,15.18,15.18,0,0,0,8,8.08,15.2,15.2,0,0,0,11.89,0,15.38,15.38,0,0,0,4.82-3.29,15.59,15.59,0,0,0,3.24-4.82,15,15,0,0,0,0-11.71,15.59,15.59,0,0,0-3.24-4.82,15.38,15.38,0,0,0-4.82-3.29A14.61,14.61,0,0,0,612.5,114.7Z"/><path class="cls-3" d="M332.24,104.93a24.41,24.41,0,0,1,15.81,5.54V88a4.54,4.54,0,0,1,4.68-4.68,4.65,4.65,0,0,1,3.36,1.33A4.47,4.47,0,0,1,357.47,88v42.16A24.11,24.11,0,0,1,350.08,148a25.23,25.23,0,0,1-35.67-35.67A24.31,24.31,0,0,1,332.24,104.93Zm15.81,25.22a15.2,15.2,0,0,0-1.24-6.1,16.28,16.28,0,0,0-3.38-5,16.05,16.05,0,0,0-5-3.42,15.84,15.84,0,0,0-12.39,0,15.82,15.82,0,0,0-8.36,8.42,15.77,15.77,0,0,0,0,12.25A15.82,15.82,0,0,0,326,144.7a15.84,15.84,0,0,0,12.39,0,16,16,0,0,0,5-3.42,16.26,16.26,0,0,0,3.38-5A15.19,15.19,0,0,0,348.05,130.16Z"/></svg>